<svg xmlns="http://www.w3.org/2000/svg" viewBox="0 0 28.86 28.86"><defs><style>.cls-1{fill:#fff;}.cls-2{fill:#003271;}.cls-3{fill:none;stroke:#fff;stroke-miterlimit:10;stroke-width:0.82px;}</style></defs><title>Element 132</title><g id="Ebene_2" data-name="Ebene 2"><g id="tapir_weiss" data-name="tapir weiss"><path class="cls-1" d="M28.5,14.55a14.27,14.27,0,0,1-.68,4.35A14.21,14.21,0,0,1,23,25.73a14.34,14.34,0,0,1-3.72,2,13.9,13.9,0,0,1-4.28.84,14.16,14.16,0,0,1-4.4-.52A13.8,13.8,0,0,1,6.7,26.31a14.15,14.15,0,0,1-3.13-2.8A13.82,13.82,0,0,1,1.4,19.87a14,14,0,0,1-1-4.24A14.37,14.37,0,0,1,.75,11.2,14.11,14.11,0,0,1,2.39,7.25,14.36,14.36,0,0,1,5.08,4,14.14,14.14,0,0,1,12.81.56a14.4,14.4,0,0,1,4.44.19,14,14,0,0,1,7.36,4.08A14.34,14.34,0,0,1,27,8.28a14,14,0,0,1,1.46,6.27Z"/><path class="cls-2" d="M22.45,18.38a18.08,18.08,0,0,0-.6-3.49,6.44,6.44,0,0,0-.25-.74,6.21,6.21,0,0,0-1-1.61A18.23,18.23,0,0,0,19,10.7c-.82-.81-1.69-1.56-2.58-2.28-.41-.32-.81-.64-1.23-1A5.25,5.25,0,0,0,16.4,6.35a1.75,1.75,0,0,0,.19-1.8,1.86,1.86,0,0,0-1.43-1,2.64,2.64,0,0,0-.93,0,.89.89,0,0,0-.65.37,3.15,3.15,0,0,0-.3,1q-.07.43-.12.87L11.5,5.54l-.91-.11-.3,0s-.1,0-.13,0a.4.4,0,0,1-.08-.16L10,5a5.14,5.14,0,0,0-.32-.49,2.19,2.19,0,0,0-.83-.77,2.24,2.24,0,0,0-1.17-.17,1,1,0,0,0-.87.54,1.39,1.39,0,0,0-.13.56,1.5,1.5,0,0,0,0,.3.82.82,0,0,0,0,.27.83.83,0,0,0,.15.23L7,5.7a5.14,5.14,0,0,0,.4.41c.28.26.58.5.88.73a5.72,5.72,0,0,0,.82.57c.22.13.67.35.91.14A1.2,1.2,0,0,0,10.25,7a.46.46,0,0,1,.1-.18.49.49,0,0,1,.24,0c.18,0,.31.13.31.31a.9.9,0,0,1-.18.51,1.21,1.21,0,0,1-.63.53A1.58,1.58,0,0,1,9,8,7.83,7.83,0,0,1,7.11,6.62l-.39-.38a4.78,4.78,0,0,0-.46-.44s-.07,0-.13,0L6,5.79l-.3,0L5,5.9c-.36,0-.73.1-1.1.11H3.19a12.83,12.83,0,0,0-1,1.36,13.72,13.72,0,0,0-2,7.75,13.6,13.6,0,0,0,.4,2.19,14.81,14.81,0,0,0,2,4.49c.22.33.46.65.71,1,0-.12-.13-.37,0-.48a.74.74,0,0,1,.23-.2l1.14-1c.9-.74,1.82-1.48,2.75-2.19.44-.33.88-.65,1.34-.95a7.23,7.23,0,0,1,.66-.4,1.3,1.3,0,0,1,.44-.17.71.71,0,0,1,.37.12l.73.29,1.63.65a29.89,29.89,0,0,0,3.15,1.06l1.75.46.8.22a3.91,3.91,0,0,1,.68.24c.19.09.19.31.21.5a4.59,4.59,0,0,0,.1.82,1.66,1.66,0,0,0,.3.71,1.13,1.13,0,0,0,.63.35,2.42,2.42,0,0,0,1.65-.19.86.86,0,0,0,.41-.41,2.72,2.72,0,0,0,.13-.58A15.73,15.73,0,0,0,22.45,18.38ZM16.7,13.86a.83.83,0,1,1-1.35-.8A.84.84,0,0,1,16.7,13.86Zm.28-.69a1.24,1.24,0,0,0-1-.71,1.28,1.28,0,0,0-1.12.48l-.52,0A1.71,1.71,0,0,1,16.06,12a1.73,1.73,0,0,1,1.45,1.22Z"/><path class="cls-3" d="M28.45,14.43a13.92,13.92,0,0,1-.69,4.34,13.72,13.72,0,0,1-1.91,3.78,14,14,0,0,1-15.26,5.36,13.7,13.7,0,0,1-3.85-1.76,14.1,14.1,0,0,1-5.29-6.42,13.92,13.92,0,0,1-1-4.21A14.28,14.28,0,0,1,.81,11.1,14,14,0,0,1,2.44,7.16,14.26,14.26,0,0,1,5.12,4,14,14,0,0,1,17.25.7a13.62,13.62,0,0,1,4,1.48,13.86,13.86,0,0,1,3.33,2.57,13.87,13.87,0,0,1,3.71,7.53A14.06,14.06,0,0,1,28.45,14.43Z"/></g></g></svg>