<svg xmlns="http://www.w3.org/2000/svg" viewBox="0 0 51.64 51.64"><defs><style>.cls-1{fill:#fff;}.cls-2{fill:#003271;}</style></defs><title>Element 146</title><g id="Ebene_2" data-name="Ebene 2"><g id="Ebene_5" data-name="Ebene 5"><circle class="cls-1" cx="25.82" cy="25.82" r="25.82"/><path class="cls-2" d="M39.45,33.39a17.89,17.89,0,0,0-.7-3.06A22.91,22.91,0,0,0,37,26.2a50.35,50.35,0,0,0-6.06-6.92c-2.48-2.5-4.73-4.62-4.73-4.62a10.63,10.63,0,0,0,2-2.34c.65-1.19.65-2.42-2-2.58a3.28,3.28,0,0,0-3,1.54A5.41,5.41,0,0,0,22.42,13l-1.52-.18-1.51-.19A17,17,0,0,0,17,10.43c-1.28-.93-2.75-1.54-3.49-.31a2.09,2.09,0,0,0,.17,1.77A6.93,6.93,0,0,0,14.28,13a2,2,0,0,1-1.06.65c-.82.12-4.43-.08-4.43-.08s-4,3.58-4,11.55c0,9.84,4.73,14,4.73,14l9.59-6.83c.45,1.09,3.46,2.83,12.91,3.61a3.16,3.16,0,0,1,2.1.76,7.8,7.8,0,0,1,.08,1.94c0,1,.14,1.67,1.21,2.18a5.15,5.15,0,0,0,2.71,0c1.45-.31,1.38-3.3,1.39-4.69A16,16,0,0,0,39.45,33.39ZM27.7,25A1.28,1.28,0,1,1,29,23.7,1.28,1.28,0,0,1,27.7,25Zm1.82-2a2,2,0,0,0-3.36-.37l-.84-.09a2.74,2.74,0,0,1,5,.55Z"/></g></g></svg>