<svg xmlns="http://www.w3.org/2000/svg" viewBox="0 0 898.15 294"><defs><style>.cls-1{fill:none;stroke:#003271;stroke-miterlimit:10;stroke-width:20.79px;}.cls-2{fill:#003271;}.cls-3{fill:#333;}</style></defs><title>Element 133</title><g id="Ebene_2" data-name="Ebene 2"><g id="tapir_Logo_transparent" data-name="tapir Logo transparent"><path class="cls-1" d="M265.4,137.9A127.47,127.47,0,1,1,85.29,21.73a126.48,126.48,0,0,1,37.84-10.48A128.67,128.67,0,0,1,163.49,13,126.86,126.86,0,0,1,200,26.5a128.07,128.07,0,0,1,52.12,54.6,126.83,126.83,0,0,1,11.83,37.25A129.3,129.3,0,0,1,265.4,137.9Z"/><path class="cls-2" d="M47.21,211.48A117.43,117.43,0,0,1,37.86,76.55c.55-.91,1.12-1.79,1.7-2.68H37.12c-.48,0-.45,0-.76.29a12.48,12.48,0,0,0-1.49,2.65q-1.41,2.59-2.7,5.26-2.64,5.42-4.74,11.08a125.69,125.69,0,0,0-6.26,23.65A126.54,126.54,0,0,0,40.54,207.2c2,3.08,4.21,6.06,6.5,9-.28-1-1.09-3.11-.46-4.1A2.52,2.52,0,0,1,47.21,211.48Zm162.07-23.34a165.73,165.73,0,0,0-5.15-37.29c-.73-2.7-1.56-5.38-2.55-8-2-5.32-5.35-10.13-8.85-14.58a153.2,153.2,0,0,0-13.59-14.88,307.77,307.77,0,0,0-26.48-22.86c-1.89-1.47-3.79-2.93-5.73-4.34A49.66,49.66,0,0,0,156.35,78a15,15,0,0,0,3.85-7.46,15.25,15.25,0,0,0-1.67-10,15.92,15.92,0,0,0-7.13-6.81,20.25,20.25,0,0,0-9.18-1.43c-2.42.13-5.23.51-7.3,1.85-1.6,1-2.28,3.24-2.8,5a59.81,59.81,0,0,0-2.19,12.53l-21-2.67-4-.51c-.79-.1-.81-.68-1.2-1.38a55.9,55.9,0,0,0-4.09-6.43,18.58,18.58,0,0,0-5.94-5.7c-4.65-2.43-12.45-3.34-16.61.55-2.43,2.27-2.76,6-2.67,9.16a15,15,0,0,0,.17,2.41,5.18,5.18,0,0,0,1.23,2,45.42,45.42,0,0,0,3.61,4.1,90.25,90.25,0,0,0,9.48,8.08,56.82,56.82,0,0,0,6.38,4.39c2,1.14,4.25,2.2,6.58,1.81,2.15-.36,2.64-3,3.28-4.75.24-.66.51-1.6,1.3-1.75a5.44,5.44,0,0,1,2.53.3c3,1.07,1.5,4.56.35,6.47a10.14,10.14,0,0,1-5.77,4.84c-4.93,1.4-10.18-1.66-14.07-4.37A103.88,103.88,0,0,1,77,77.45c-1.43-1.37-2.85-2.75-4.26-4.12l-1.16-1.14c-.4-.38-.47-.45-1-.44-.79,0-1.6.18-2.38.27L57.11,73.27a102,102,0,0,1-10.32.59c-1.32,1.89-2.6,3.82-3.79,5.79a111.3,111.3,0,0,0,8.81,128l1.13-.95q9.41-7.89,19-15.53c6.76-5.36,13.6-10.69,20.8-15.46a49.17,49.17,0,0,1,7.36-4.28,7.09,7.09,0,0,1,2.32-.71,6,6,0,0,1,2.6.85c10.13,4.24,20.36,8.29,30.68,12,10.7,3.87,21.72,6.5,32.7,9.43,2.43.64,4.87,1.3,7.27,2.05a18.71,18.71,0,0,1,4.36,1.67c1.42.89,1.29,3.27,1.4,4.74.26,3.47.61,6.95,2.08,10.15a8.35,8.35,0,0,0,4.89,4.59,18.39,18.39,0,0,0,7.28,1c3.87-.16,9.65-1.24,11.69-5,1.37-2.54,1.47-6,1.69-8.8A136.5,136.5,0,0,0,209.28,188.14ZM160,132.61a7.16,7.16,0,0,1-7,5.72c-6.49,0-9.51-8.38-4.53-12.53S161.2,126.21,160,132.61Zm2.51-5.81a10.61,10.61,0,0,0-18-2l-4.32-.47a14.5,14.5,0,0,1,26.65,2.92Z"/><path class="cls-3" d="M414.9,228A39.42,39.42,0,0,1,400,230.71a47.75,47.75,0,0,1-15.27-2,34.14,34.14,0,0,1-20-16.36c-4.68-8.89-4.81-18.81-4.81-28.58V85.62c0-.31.18-1.37,0-1.64s-2.52-.08-3-.08H344c-.35,0-1.77.23-2.06,0s-.07-.76-.07-1V67.46c0-.54-.1-.43.26-.56a9.14,9.14,0,0,1,2.45,0h13c.54,0,3.07.3,3.31-.14a4.2,4.2,0,0,0,0-1.37V31c0-.27-.14-1,0-1.25s.22-.16.45-.23c1.82-.6,3.66-1.14,5.49-1.71l16.72-5.21,3.34-1V66.14c0,.77-.13.76.64.76h25.39a6.45,6.45,0,0,1,1.7,0c.38.12.18-.1.27.35a13.48,13.48,0,0,1,0,2.46v12.1c0,.36.22,1.71,0,2s-2.23.08-2.66.08H389.08c-.34,0-2-.21-2.18,0s0,1.14,0,1.36V187.52a45.36,45.36,0,0,0,.65,9.16,20.41,20.41,0,0,0,5.76,11,18.7,18.7,0,0,0,11.54,4.56,31.9,31.9,0,0,0,10-1.13Z"/><path class="cls-3" d="M556.9,221.85c-11.87,6.31-25.58,9.43-38.87,10.8-13.55,1.4-27.72,1.33-41-2.07-10.42-2.67-20.65-7.75-27.58-16.19-7.39-9-9.9-20.82-9.61-32.26a47.72,47.72,0,0,1,4.06-18.8,46.13,46.13,0,0,1,10.77-14.47c9.67-8.93,22.41-14.2,34.91-17.77a200.26,200.26,0,0,1,20.71-4.59q5.35-.91,10.75-1.62c1.88-.24,3.77-.47,5.65-.67l2.68-.29a9.9,9.9,0,0,0,2.52-.24c.13-.18,0-.94,0-1.15v-7.82a49,49,0,0,0-1.82-14.66,24.44,24.44,0,0,0-8.16-12.22,33.09,33.09,0,0,0-14.9-6c-14.17-2.39-29.25.42-42.52,5.56a78.75,78.75,0,0,0-8.82,4L452.44,83l-2.23-5.74-.69-1.78c-.19-.49-.33-.48.05-.76A12.71,12.71,0,0,1,452,73.62q1.37-.63,2.76-1.23,2.7-1.14,5.45-2.15c3.83-1.4,7.73-2.6,11.67-3.64A108.47,108.47,0,0,1,497.17,63c13.74-.27,28.16,1.88,39.88,9.51a40.17,40.17,0,0,1,12.14,12,49,49,0,0,1,6.45,17.13,98.89,98.89,0,0,1,1.26,18.35V221.85Zm-25-84c-12.07,1.41-24.18,3.62-35.63,7.78-9.08,3.3-18.38,7.84-24,16.06-5.93,8.72-7.06,20.5-4.78,30.63a29.78,29.78,0,0,0,6.77,13.48,30.62,30.62,0,0,0,12.13,8,52.1,52.1,0,0,0,16.83,2.91,71.66,71.66,0,0,0,20.36-2.33c1.5-.4,3-.86,4.45-1.4.63-.23,1.25-.47,1.86-.73s1.53-.45,1.86-.85c.16-.2.13-.29.13-.6v-73Z"/><path class="cls-3" d="M720.23,145.7c0,19.66-3.7,39.86-14.45,56.64a63.21,63.21,0,0,1-19.44,19.59,65,65,0,0,1-27.09,9.34,79.88,79.88,0,0,1-18.09,0,79,79,0,0,1-16.26-3.4v64.39c0,.3.17,1.25,0,1.5s-.68.11-1,.11H601c-.29,0-1.88.22-2.09,0s0-1,0-1.17V76.33a1.61,1.61,0,0,1,0-.49c.13-.29,1.06-.58,1.35-.72q2.68-1.34,5.44-2.46a112.23,112.23,0,0,1,49.74-7.74c15.25,1,30.12,6.24,41.48,16.7s18,24.94,21,39.91A120.22,120.22,0,0,1,720.23,145.7Zm-26,1.17A136.7,136.7,0,0,0,691.5,118c-1.9-8.75-5.34-17.48-11.3-24.29a38.11,38.11,0,0,0-21.82-12.21,61.48,61.48,0,0,0-14.53-.8A56,56,0,0,0,629.24,83c-1,.32-2,.69-2.9,1.1-.29.13-1.27.4-1.44.69,0,.06,0,.2,0,.26a7,7,0,0,0,0,1.52V209.68a5.86,5.86,0,0,0,0,1.45c0,.07,0,.18,0,.24.19.34,1.53.6,1.88.72,1.12.38,2.26.71,3.4,1a59.68,59.68,0,0,0,27,.26,40.75,40.75,0,0,0,19.45-10.29c11.17-10.82,15.48-27.05,17-42.06C694,156.3,694.2,151.59,694.2,146.87Z"/><path class="cls-3" d="M788,21.77c0,6.4-4.64,12-10.64,13.92a16.84,16.84,0,0,1-17.44-4.5,13.88,13.88,0,0,1-1.46-17,16.6,16.6,0,0,1,16.67-6.89C782.11,8.5,788,14.53,788,21.77ZM758.9,228.9V67.55c0-.89.11-.65,1.08-.65h22.94c.27,0,1.77-.21,2,0,0,0,0,.34,0,.41.09,1,0,2,0,3V227c0,.29.2,1.66,0,1.89s-1,0-1.18,0H758.9Z"/><path class="cls-3" d="M892.24,84.9c-7.43-2.83-15.71-3.19-23.54-2.28a34.32,34.32,0,0,0-11.39,3c-.67.33-1.28.39-1.41,1a15.08,15.08,0,0,0,0,2.85V228.19c0,.88,0,.71-1,.71h-24c-.17,0-.77.1-.92,0s0-.05-.08-.25a9.65,9.65,0,0,1,0-2.63V76.81a3.94,3.94,0,0,1,0-1c.19-.73,1.36-.9,2-1.21,14-6.47,29.37-9.59,44.72-10.27,4-.17,8-.23,12-.09a46.85,46.85,0,0,1,9.53.83L893,82.46Z"/></g></g></svg>