<svg xmlns="http://www.w3.org/2000/svg" viewBox="0 0 245 245"><defs><style>.cls-1{fill:#fff;}.cls-2{fill:#213b87;}.cls-3{fill:none;stroke:#fff;stroke-miterlimit:10;stroke-width:7px;}</style></defs><title>Element 122</title><g id="Ebene_2" data-name="Ebene 2"><g id="tapir_weiss" data-name="tapir weiss"><path class="cls-1" d="M242,123.5A119.56,119.56,0,1,1,108.72,4.79a120.8,120.8,0,0,1,37.7,1.6A119.41,119.41,0,0,1,242,123.5Z"/><path class="cls-2" d="M190.56,163.86a152.11,152.11,0,0,0-5.05-29.59c-.62-2.15-1.31-4.28-2.1-6.37a55.25,55.25,0,0,0-8.12-13.64,143.74,143.74,0,0,0-11.87-13.39,291.73,291.73,0,0,0-25.19-22.34c-3.11-2.49-6.25-4.94-9.47-7.29a45.51,45.51,0,0,0,10.48-9.53,14.69,14.69,0,0,0,1.57-15.27,15.73,15.73,0,0,0-12.08-8.92,23.39,23.39,0,0,0-8,.21c-2.15.44-4.34,1.11-5.49,3.11-1.44,2.51-2,5.59-2.53,8.41-.45,2.46-.78,4.94-1,7.42l-14.1-1.79-7.73-1-2.56-.32a3.41,3.41,0,0,1-1.12-.17,5.14,5.14,0,0,1-.71-1.33c-.34-.62-.69-1.23-1.06-1.84-.83-1.41-1.73-2.79-2.69-4.12-1.89-2.61-4.08-5.21-7.09-6.54a19.27,19.27,0,0,0-9.89-1.47c-3.05.37-6.08,1.68-7.45,4.6a13.21,13.21,0,0,0-1.08,4.8c-.05.83-.05,1.67,0,2.51a10,10,0,0,0,.18,2.32,7.28,7.28,0,0,0,1.31,1.89c.53.68,1.08,1.34,1.65,2a48.66,48.66,0,0,0,3.4,3.49c2.37,2.2,4.93,4.23,7.48,6.22a59.89,59.89,0,0,0,6.93,4.81c1.93,1.09,5.73,3,7.76,1.17,1.17-1.06,1.51-2.87,2-4.29.18-.48.4-1.25.88-1.52a3.68,3.68,0,0,1,2,0,2.74,2.74,0,0,1,2.64,2.62A7.73,7.73,0,0,1,91,73a10.11,10.11,0,0,1-5.37,4.54c-3.24,1-6.71-.06-9.64-1.5-5.89-2.89-10.89-7.54-15.62-12l-3.33-3.2A46.71,46.71,0,0,0,53.14,57c-.42-.31-.55-.24-1.07-.18L50.86,57l-2.59.29-5.54.62c-3.11.36-6.25.85-9.39.95-2.44.07-4.89.08-7.34.09H21.33Q20.12,60.76,19,62.65a117,117,0,0,0-13.63,33,118.28,118.28,0,0,0-3,37,116.82,116.82,0,0,0,25.89,64.9,1.36,1.36,0,0,1,.17-.41,10.47,10.47,0,0,1,2-1.69q4.8-4.07,9.65-8.08c7.68-6.34,15.43-12.6,23.38-18.6,3.71-2.79,7.46-5.55,11.34-8.11,1.83-1.21,3.69-2.39,5.63-3.41a11.59,11.59,0,0,1,3.71-1.44c1.1-.13,2.22.61,3.2,1q3.06,1.28,6.13,2.51,6.9,2.81,13.85,5.49a269.05,269.05,0,0,0,26.77,9c4.93,1.33,9.89,2.57,14.83,3.87,2.29.6,4.57,1.21,6.83,1.88a33.13,33.13,0,0,1,5.75,2c1.61.8,1.62,2.63,1.75,4.25a50.22,50.22,0,0,0,.86,7,14.56,14.56,0,0,0,2.55,6,9.85,9.85,0,0,0,5.34,2.94,20.48,20.48,0,0,0,14-1.6,7.32,7.32,0,0,0,3.51-3.48,20.39,20.39,0,0,0,1.08-4.88C191.78,182.62,191.32,173.08,190.56,163.86Zm-48.78-46.21a7.15,7.15,0,0,1-6.95,5.72c-6.49,0-9.52-8.38-4.53-12.53S143,111.25,141.78,117.65Zm2.52-5.8a10.62,10.62,0,0,0-18-2L122,109.4a14.52,14.52,0,0,1,26.66,2.92Z"/><path class="cls-3" d="M241.5,122.5A119,119,0,0,1,3.85,131.73a120.16,120.16,0,0,1,3-37.51A118.94,118.94,0,0,1,108.72,4.29,119.12,119.12,0,0,1,229.1,69.56a118.87,118.87,0,0,1,12.4,52.94Z"/></g></g></svg>